# xmcd
#
# Track frame offsets:
#	150
#	10422
#	25497
#	43666
#	59788
#	72800
#	86460
#	105960
#	119497
#	135435
#	159585
#	179760
#
# Disc length: 2613 seconds
#
# Revision: 0
# Processed by: cddbd v1.5.2PL0 Copyright (c) Steve Scherf et al.
# Submitted via: EasyCDDAExtractor 15.3.0.1
#
DISCID=a40a330c
DTITLE=Superstrings - Superstrings Live
DYEAR=2015
DGENRE=
TTITLE0=Raffles
TTITLE1=It's A Sin To Tell A Lie
TTITLE2=Jack-a-Roe
TTITLE3=Ashokan Farewell
TTITLE4=Friend Of The Devil
TTITLE5=Douce Ambience
TTITLE6=Seven Mondays 
TTITLE7=Belfast Hornpipe-St Anne's Reel
TTITLE8=Honeysuckle Rose
TTITLE9=Bei Mir Bist Du Schoen
TTITLE10=Freight Train
TTITLE11=Chinatown
EXTD=
EXTT0=
EXTT1=
EXTT2=
EXTT3=
EXTT4=
EXTT5=
EXTT6=
EXTT7=
EXTT8=
EXTT9=
EXTT10=
EXTT11=
PLAYORDER=
